Genre:Action | Adventure | Fantasy | Romanc
Language:English
IMDb:http://www.imdb.com/title/tt0473075/
Subtitles: ROMANA
.............................................
General
Complete name : Prince Of Persia 2010 R4 DVDRIP H264 FEEL-FREE.mp4
Format : MPEG-4
Format profile : Base Media
Codec ID : isom
File size : 1.47 GiB
Duration : 1h 55mn
Overall bit rate : 1 816 Kbps
..............................................
Video
ID : 1
Format : AVC
Format/Info : Advanced Video Codec
Format profile : Main@L4.0
Format settings, CABAC : No
Format settings, ReFrames : 2 frames
Codec ID : avc1
Codec ID/Info : Advanced Video Coding
Duration : 1h 55mn
Bit rate mode : Variable
Bit rate : 1 492 Kbps
Width : 720 pixels
Height : 304 pixels
Display aspect ratio : 2.35:1
Frame rate mode : Constant
Frame rate : 23.976 fps
Resolution : 24 bits
Colorimetry : 4:2:0
Scan type : Progressive
Bits/(Pixel*Frame) : 0.284
Stream size : 1.21 GiB (82%)
................................................
Audio
ID : 2
Format : AAC
Format/Info : Advanced Audio Codec
Format version : Version 4
Format profile : LC
Format settings, SBR : No
Codec ID : 40
Duration : 1h 55mn
Bit rate mode : Variable
Bit rate : 320 Kbps
Channel(s) : 6 channels
Channel positions : Front: L C R, Rear: L R, LFE
Sampling rate : 44.1 KHz
Resolution : 16 bits
Stream size : 265 MiB (18%)
.................................................
Plot:
Based on the video game, which follows an adventurous prince who teams up with a rival princess to stop an angry ruler from unleashing a sandstorm that could destroy the world.
...................................................

Screenshots:
 
http://www.starshare.ro/bitbucket/Prince%20Of%20Persia%202010%20R4%20DVDRIP%20H264%20FEEL-FREE.mp4_thumbs_%5B2010.08.17_12.20.23%5D.jpg
 
http://www.starshare.ro/bitbucket/vlcsnap-2010-08-17-12h37m07s108.jpg
 
http://www.starshare.ro/bitbucket/vlcsnap-2010-08-17-12h38m20s65.jpg
 
http://www.starshare.ro/bitbucket/vlcsnap-2010-08-17-12h38m29s168.jpg
 
http://www.starshare.ro/bitbucket/vlcsnap-2010-08-17-12h39m25s213.jpg
 
http://www.starshare.ro/bitbucket/vlcsnap-2010-08-17-12h49m24s45.jpg
 
http://www.starshare.ro/bitbucket/vlcsnap-2010-08-17-12h49m29s102.jpg

........................................................